<?xml version="1.0" encoding="UTF-8" standalone="no"?>
<!DOCTYPE svg PUBLIC "-//W3C//DTD SVG 1.1//EN" "http://www.w3.org/Graphics/SVG/1.1/DTD/svg11.dtd">
<svg width="100%" height="100%" viewBox="0 0 18 30" version="1.1" xmlns="http://www.w3.org/2000/svg" xmlns:xlink="http://www.w3.org/1999/xlink" xml:space="preserve" xmlns:serif="http://www.serif.com/" style="fill-rule:evenodd;clip-rule:evenodd;stroke-linejoin:round;stroke-miterlimit:2;">
    <g transform="matrix(1,0,0,1,-502,-1784)">
        <g transform="matrix(1,0,0,0.931444,0,1024)">
            <g transform="matrix(1,0,0,1,0.567796,0.0326118)">
                <g transform="matrix(1.12783,0,0,1.21084,46.342,-1244.27)">
                    <rect x="403.509" y="1701.44" width="5.32" height="5.32" style="fill:rgb(191,191,191);"/>
                </g>
                <g transform="matrix(1.12783,0,0,1.21084,58.342,-1231.39)">
                    <rect x="403.509" y="1701.44" width="5.32" height="5.32" style="fill:rgb(191,191,191);"/>
                </g>
                <g transform="matrix(1.12783,0,0,1.21084,46.342,-1218.51)">
                    <rect x="403.509" y="1701.44" width="5.32" height="5.32" style="fill:rgb(191,191,191);"/>
                </g>
                <g transform="matrix(1.12783,0,0,1.21084,58.342,-1218.51)">
                    <rect x="403.509" y="1701.44" width="5.32" height="5.32" style="fill:rgb(191,191,191);"/>
                </g>
                <g transform="matrix(1.12783,0,0,1.21084,46.342,-1231.39)">
                    <rect x="403.509" y="1701.44" width="5.32" height="5.32" style="fill:rgb(191,191,191);"/>
                </g>
                <g transform="matrix(1.12783,0,0,1.21084,58.342,-1244.27)">
                    <rect x="403.509" y="1701.44" width="5.32" height="5.32" style="fill:rgb(191,191,191);"/>
                </g>
            </g>
        </g>
    </g>
</svg>
