<?xml version="1.0" encoding="UTF-8" standalone="no"?>
<!DOCTYPE svg PUBLIC "-//W3C//DTD SVG 1.1//EN" "http://www.w3.org/Graphics/SVG/1.1/DTD/svg11.dtd">
<svg version="1.1" xmlns="http://www.w3.org/2000/svg" xmlns:xlink="http://www.w3.org/1999/xlink" preserveAspectRatio="xMidYMid meet" viewBox="55.93400000000001 107.29070973950672 236.60399999999998 272.24418604651237" width="232.6" height="268.24"><defs><path d="M193.42 108.37L199.66 108.43L205.82 108.51L211.89 108.61L217.87 108.72L223.75 108.85L229.54 109L235.21 109.15L240.78 109.33L246.23 109.52L251.55 109.72L256.76 109.94L261.82 110.17L266.76 110.41L271.54 110.67L276.19 110.94L280.68 111.22L285.01 111.51L289.18 111.82L289.54 111.84L288.99 117.33L287.21 131.25L285.09 144.78L282.66 157.92L279.94 170.66L276.95 183.02L273.72 194.99L270.26 206.57L266.6 217.76L262.77 228.57L258.77 238.99L254.65 249.02L250.41 258.67L246.08 267.93L241.68 276.81L237.24 285.31L232.78 293.43L228.32 301.16L223.88 308.51L219.48 315.49L215.15 322.08L210.91 328.3L206.79 334.13L202.79 339.59L198.96 344.67L195.3 349.38L191.84 353.71L188.6 357.67L185.62 361.25L182.9 364.46L180.47 367.3L178.35 369.76L176.56 371.86L175.14 373.58L174.09 374.93L173.45 375.92L173.23 376.53L173.01 375.92L172.37 374.93L171.32 373.58L169.89 371.86L168.11 369.76L165.99 367.3L163.56 364.46L160.84 361.25L157.85 357.67L154.62 353.71L151.16 349.38L147.5 344.67L143.67 339.59L139.67 334.13L135.55 328.29L131.31 322.08L126.98 315.49L122.58 308.51L118.14 301.16L113.68 293.42L109.22 285.31L104.78 276.81L100.38 267.93L96.05 258.66L91.81 249.02L87.68 238.98L83.69 228.56L79.85 217.76L76.2 206.56L72.74 194.98L69.5 183.01L66.51 170.66L63.79 157.91L61.36 144.77L59.25 131.24L57.46 117.32L56.93 112.01L59.34 111.82L63.51 111.51L67.84 111.22L72.33 110.94L76.98 110.67L81.77 110.41L86.7 110.17L91.77 109.94L96.97 109.72L102.29 109.52L107.74 109.33L113.31 109.15L118.98 109L124.77 108.85L130.65 108.72L136.63 108.61L142.71 108.51L148.86 108.43L155.1 108.37L161.42 108.33L167.81 108.3L174.26 108.29L180.71 108.3L187.1 108.33L187.1 108.33L193.42 108.37Z" id="eSBYdi9g4"></path><clipPath id="clipcJBadQVND"><use xlink:href="#eSBYdi9g4" opacity="1"></use></clipPath><path d="M104.65 198.92L69.3 163.57L103.93 128.94L139.29 164.29L104.65 198.92ZM104.29 179.49L119.85 163.93L104.29 148.37L88.74 163.93L104.29 179.49Z" id="aNArwEOVL"></path><path d="M174.6 198.92L139.24 163.57L173.88 128.94L209.23 164.29L174.6 198.92ZM174.24 179.49L189.8 163.93L174.24 148.37L158.68 163.93L174.24 179.49Z" id="bwHxZZs3K"></path><path d="M244.59 198.92L209.23 163.57L243.87 128.94L279.22 164.29L244.59 198.92ZM244.23 179.49L259.79 163.93L244.23 148.37L228.67 163.93L244.23 179.49Z" id="b1IeUZg2mA"></path><path d="M173.6 338.4L138.24 303.05L172.88 268.41L208.23 303.77L173.6 338.4ZM173.24 318.96L188.8 303.41L173.24 287.85L157.68 303.41L173.24 318.96Z" id="k3VybkNvdi"></path><path d="M104.65 269.91L89.47 235.65L88.74 234.92L89.02 234.64L86.49 228.94L86.31 228.5L86.14 228.06L85.99 227.61L85.85 227.17L85.73 226.72L85.63 226.26L85.54 225.81L85.46 225.35L85.41 224.9L85.37 224.44L85.34 223.98L85.33 223.53L85.34 223.07L85.36 222.62L85.39 222.16L85.44 221.71L85.51 221.26L85.59 220.81L85.69 220.37L85.8 219.93L85.92 219.49L86.06 219.06L86.22 218.63L86.39 218.21L86.57 217.79L86.77 217.38L86.98 216.97L87.21 216.57L87.45 216.18L87.71 215.79L87.97 215.41L88.26 215.04L88.55 214.68L88.87 214.33L89.19 213.99L89.53 213.65L103.93 199.92L139.29 235.28L104.65 269.91ZM89.47 235.65L104.29 250.48L119.85 234.92L104.29 219.36L89.02 234.64L89.47 235.65Z" id="aiwGmu8Zw"></path><path d="M173.6 269.91L138.24 234.56L172.88 199.92L208.23 235.28L173.6 269.91ZM173.24 250.48L188.8 234.92L173.24 219.36L157.68 234.92L173.24 250.48Z" id="bcvKbbg8q"></path><path d="M257.33 213.99L257.66 214.33L257.97 214.68L258.26 215.04L258.55 215.41L258.82 215.79L259.07 216.18L259.31 216.57L259.54 216.97L259.75 217.38L259.95 217.79L260.13 218.21L260.3 218.63L260.46 219.06L260.6 219.49L260.72 219.93L260.84 220.37L260.93 220.81L261.01 221.26L261.08 221.71L261.13 222.16L261.17 222.62L261.19 223.07L261.19 223.53L261.18 223.98L261.16 224.44L261.11 224.9L261.06 225.35L260.98 225.81L260.9 226.26L260.79 226.72L260.67 227.17L260.54 227.61L260.38 228.06L260.21 228.5L260.03 228.94L257.5 234.64L257.79 234.92L257.05 235.65L241.87 269.91L207.23 235.28L242.59 199.92L256.99 213.65L257.33 213.99ZM242.23 250.48L257.05 235.65L257.5 234.64L242.23 219.36L226.67 234.92L242.23 250.48Z" id="dBepbNO03"></path><path d="M139.29 304.41C133.76 298.57 122.69 286.91 106.1 269.41C133.76 298.57 144.82 310.24 139.29 304.41Z" id="b1AzvCsqvY"></path><path d="M209.62 302.41C215.15 296.57 226.21 284.91 242.8 267.41C215.15 296.57 204.09 308.24 209.62 302.41Z" id="ac215qz8J"></path><path d="M129.82 311.77C132.15 309.37 136.81 304.59 143.8 297.41C132.15 309.37 127.49 314.16 129.82 311.77Z" id="a11a7RWWHW"></path><path d="M203.82 298.99C206.15 301.38 210.81 306.16 217.8 313.34C206.15 301.38 201.49 296.59 203.82 298.99Z" id="bVFHp1L9J"></path></defs><g><g><use xlink:href="#eSBYdi9g4" opacity="1" fill="#aa0f00" fill-opacity="1"></use><g clip-path="url(#clipcJBadQVND)"><use xlink:href="#eSBYdi9g4" opacity="1" fill-opacity="0" stroke="#000000" stroke-width="12" stroke-opacity="1"></use></g></g><g><g><use xlink:href="#aNArwEOVL" opacity="1" fill="#daae41" fill-opacity="1"></use><g><use xlink:href="#aNArwEOVL" opacity="1" fill-opacity="0" stroke="#000000" stroke-width="3" stroke-opacity="1"></use></g></g><g><use xlink:href="#bwHxZZs3K" opacity="1" fill="#daae41" fill-opacity="1"></use><g><use xlink:href="#bwHxZZs3K" opacity="1" fill-opacity="0" stroke="#000000" stroke-width="3" stroke-opacity="1"></use></g></g><g><use xlink:href="#b1IeUZg2mA" opacity="1" fill="#daae41" fill-opacity="1"></use><g><use xlink:href="#b1IeUZg2mA" opacity="1" fill-opacity="0" stroke="#000000" stroke-width="3" stroke-opacity="1"></use></g></g></g><g><use xlink:href="#k3VybkNvdi" opacity="1" fill="#daae41" fill-opacity="1"></use><g><use xlink:href="#k3VybkNvdi" opacity="1" fill-opacity="0" stroke="#000000" stroke-width="3" stroke-opacity="1"></use></g></g><g><use xlink:href="#aiwGmu8Zw" opacity="1" fill="#daae41" fill-opacity="1"></use><g><use xlink:href="#aiwGmu8Zw" opacity="1" fill-opacity="0" stroke="#000000" stroke-width="3" stroke-opacity="1"></use></g></g><g><use xlink:href="#bcvKbbg8q" opacity="1" fill="#daae41" fill-opacity="1"></use><g><use xlink:href="#bcvKbbg8q" opacity="1" fill-opacity="0" stroke="#000000" stroke-width="3" stroke-opacity="1"></use></g></g><g><use xlink:href="#dBepbNO03" opacity="1" fill="#daae41" fill-opacity="1"></use><g><use xlink:href="#dBepbNO03" opacity="1" fill-opacity="0" stroke="#000000" stroke-width="3" stroke-opacity="1"></use></g></g><g><g><use xlink:href="#b1AzvCsqvY" opacity="1" fill-opacity="0" stroke="#020501" stroke-width="3" stroke-opacity="1"></use></g></g><g><g><use xlink:href="#ac215qz8J" opacity="1" fill-opacity="0" stroke="#020501" stroke-width="3" stroke-opacity="1"></use></g></g><g><g><use xlink:href="#a11a7RWWHW" opacity="1" fill-opacity="0" stroke="#020501" stroke-width="3" stroke-opacity="1"></use></g></g><g><g><use xlink:href="#bVFHp1L9J" opacity="1" fill-opacity="0" stroke="#020501" stroke-width="3" stroke-opacity="1"></use></g></g></g></svg>