<?xml version="1.0" encoding="UTF-8" standalone="no"?>
<!DOCTYPE svg PUBLIC "-//W3C//DTD SVG 1.1//EN" "http://www.w3.org/Graphics/SVG/1.1/DTD/svg11.dtd">
<svg width="100%" height="100%" viewBox="0 0 189 40" version="1.1" xmlns="http://www.w3.org/2000/svg" xmlns:xlink="http://www.w3.org/1999/xlink" xml:space="preserve" xmlns:serif="http://www.serif.com/" style="fill-rule:evenodd;clip-rule:evenodd;stroke-linejoin:round;stroke-miterlimit:2;">
    <g transform="matrix(1,0,0,1,-2019.91,-549.628)">
        <g id="_2013-2015" serif:id="2013-2015" transform="matrix(0.837206,0,0,0.224206,253.35,511.972)">
            <g transform="matrix(47.778,0,0,178.407,2109.06,294.267)">
                <path d="M0.056,-0.532L0.026,-0.532C0.026,-0.61 0.024,-0.664 0.021,-0.694C0.056,-0.693 0.112,-0.691 0.188,-0.689C0.25,-0.688 0.291,-0.687 0.311,-0.687C0.333,-0.687 0.384,-0.688 0.465,-0.69C0.523,-0.691 0.566,-0.693 0.592,-0.694C0.588,-0.657 0.586,-0.604 0.584,-0.532L0.553,-0.532L0.549,-0.579C0.547,-0.607 0.545,-0.624 0.544,-0.627C0.543,-0.631 0.542,-0.634 0.54,-0.636C0.538,-0.637 0.535,-0.639 0.532,-0.64C0.527,-0.641 0.511,-0.642 0.483,-0.644C0.455,-0.645 0.433,-0.646 0.417,-0.646L0.357,-0.646C0.354,-0.615 0.352,-0.573 0.352,-0.52L0.352,-0.234C0.352,-0.19 0.353,-0.146 0.354,-0.104C0.354,-0.074 0.357,-0.055 0.361,-0.049C0.364,-0.043 0.37,-0.039 0.379,-0.036C0.387,-0.034 0.41,-0.032 0.449,-0.031L0.449,0C0.391,-0.003 0.347,-0.004 0.318,-0.004C0.305,-0.004 0.254,-0.003 0.166,0L0.166,-0.031C0.204,-0.032 0.228,-0.034 0.236,-0.036C0.245,-0.039 0.25,-0.043 0.253,-0.048C0.258,-0.054 0.26,-0.07 0.261,-0.095C0.261,-0.102 0.262,-0.148 0.263,-0.234L0.263,-0.519C0.263,-0.532 0.263,-0.547 0.262,-0.563L0.259,-0.646L0.187,-0.646C0.145,-0.646 0.111,-0.644 0.086,-0.641C0.079,-0.64 0.074,-0.638 0.071,-0.635C0.068,-0.629 0.064,-0.611 0.062,-0.582L0.056,-0.532Z" style="fill-rule:nonzero;"/>
            </g>
            <g transform="matrix(47.778,0,0,178.407,2135.73,294.267)">
                <path d="M0.141,-0.688C0.156,-0.688 0.169,-0.682 0.18,-0.671C0.191,-0.661 0.196,-0.648 0.196,-0.632C0.196,-0.617 0.19,-0.604 0.18,-0.594C0.169,-0.583 0.156,-0.578 0.141,-0.578C0.126,-0.578 0.113,-0.583 0.102,-0.594C0.091,-0.604 0.086,-0.617 0.086,-0.632C0.086,-0.648 0.091,-0.661 0.102,-0.671C0.113,-0.682 0.126,-0.688 0.141,-0.688ZM0.022,-0.402L0.022,-0.43C0.085,-0.437 0.138,-0.451 0.181,-0.471L0.192,-0.463C0.189,-0.394 0.188,-0.34 0.188,-0.304L0.188,-0.215C0.19,-0.13 0.191,-0.084 0.191,-0.078C0.191,-0.061 0.193,-0.049 0.196,-0.042C0.198,-0.039 0.2,-0.037 0.203,-0.034C0.205,-0.032 0.209,-0.031 0.214,-0.029C0.216,-0.029 0.234,-0.028 0.269,-0.028L0.269,0C0.219,-0.002 0.18,-0.003 0.15,-0.003C0.124,-0.003 0.081,-0.002 0.022,0L0.022,-0.028L0.068,-0.028C0.075,-0.029 0.08,-0.03 0.084,-0.032C0.088,-0.034 0.091,-0.037 0.093,-0.04C0.096,-0.047 0.099,-0.058 0.1,-0.075C0.1,-0.079 0.101,-0.126 0.103,-0.215L0.103,-0.301C0.103,-0.349 0.101,-0.378 0.098,-0.387C0.096,-0.392 0.092,-0.396 0.087,-0.398C0.082,-0.401 0.06,-0.402 0.022,-0.402Z" style="fill-rule:nonzero;"/>
            </g>
            <g transform="matrix(47.778,0,0,178.407,2149.63,294.267)">
                <path d="M0.021,0L0.021,-0.028L0.067,-0.028C0.074,-0.029 0.079,-0.03 0.083,-0.032C0.087,-0.034 0.089,-0.037 0.091,-0.04C0.095,-0.047 0.097,-0.058 0.098,-0.075C0.098,-0.079 0.099,-0.126 0.101,-0.215L0.101,-0.273C0.101,-0.299 0.101,-0.327 0.1,-0.357C0.099,-0.376 0.097,-0.388 0.095,-0.391C0.093,-0.395 0.089,-0.397 0.084,-0.399C0.079,-0.401 0.058,-0.402 0.021,-0.401L0.021,-0.429C0.086,-0.438 0.134,-0.45 0.165,-0.465C0.171,-0.468 0.175,-0.47 0.178,-0.47C0.18,-0.47 0.182,-0.469 0.183,-0.467C0.184,-0.466 0.185,-0.463 0.185,-0.46C0.185,-0.458 0.185,-0.455 0.185,-0.452C0.183,-0.437 0.182,-0.413 0.182,-0.382L0.246,-0.441C0.254,-0.448 0.259,-0.452 0.261,-0.453C0.268,-0.457 0.279,-0.461 0.293,-0.465C0.307,-0.468 0.322,-0.47 0.337,-0.47C0.368,-0.47 0.396,-0.463 0.42,-0.447C0.445,-0.432 0.464,-0.409 0.477,-0.379L0.53,-0.429C0.542,-0.44 0.551,-0.447 0.555,-0.45C0.564,-0.455 0.576,-0.459 0.591,-0.463C0.607,-0.468 0.622,-0.47 0.638,-0.47C0.675,-0.47 0.706,-0.46 0.731,-0.44C0.756,-0.42 0.772,-0.398 0.779,-0.373C0.784,-0.356 0.786,-0.321 0.786,-0.266L0.786,-0.215L0.788,-0.147C0.789,-0.108 0.789,-0.084 0.789,-0.078C0.79,-0.061 0.792,-0.049 0.795,-0.042C0.796,-0.039 0.798,-0.037 0.801,-0.034C0.804,-0.032 0.808,-0.031 0.813,-0.029C0.815,-0.029 0.833,-0.028 0.867,-0.028L0.867,0C0.826,-0.002 0.798,-0.003 0.783,-0.003C0.768,-0.003 0.74,-0.002 0.696,0L0.701,-0.135L0.702,-0.188L0.702,-0.229C0.702,-0.284 0.699,-0.322 0.694,-0.342C0.688,-0.362 0.677,-0.378 0.659,-0.39C0.641,-0.403 0.621,-0.409 0.597,-0.409C0.57,-0.409 0.546,-0.401 0.524,-0.385C0.508,-0.373 0.497,-0.359 0.492,-0.343C0.486,-0.326 0.484,-0.295 0.484,-0.248L0.484,-0.215L0.485,-0.147C0.486,-0.108 0.486,-0.084 0.487,-0.078C0.487,-0.061 0.489,-0.049 0.493,-0.042C0.494,-0.039 0.496,-0.037 0.499,-0.034C0.501,-0.032 0.505,-0.031 0.51,-0.029C0.513,-0.029 0.531,-0.028 0.564,-0.028L0.564,0C0.517,-0.003 0.478,-0.004 0.449,-0.004C0.426,-0.004 0.383,-0.003 0.321,0L0.321,-0.028L0.368,-0.028C0.375,-0.029 0.38,-0.03 0.384,-0.032C0.388,-0.034 0.391,-0.037 0.393,-0.04C0.396,-0.047 0.398,-0.058 0.399,-0.075C0.399,-0.079 0.4,-0.126 0.402,-0.215L0.402,-0.253C0.402,-0.295 0.399,-0.326 0.392,-0.345C0.386,-0.364 0.374,-0.38 0.358,-0.391C0.342,-0.403 0.322,-0.409 0.299,-0.409C0.28,-0.409 0.261,-0.405 0.244,-0.396C0.226,-0.388 0.213,-0.378 0.204,-0.365C0.194,-0.353 0.188,-0.34 0.187,-0.326C0.183,-0.303 0.182,-0.276 0.182,-0.245L0.182,-0.215C0.184,-0.13 0.185,-0.084 0.185,-0.078C0.185,-0.061 0.187,-0.049 0.19,-0.042C0.192,-0.039 0.194,-0.037 0.196,-0.034C0.199,-0.032 0.203,-0.031 0.208,-0.029C0.21,-0.029 0.228,-0.028 0.262,-0.028L0.262,0C0.217,-0.003 0.179,-0.004 0.147,-0.004C0.119,-0.004 0.077,-0.003 0.021,0Z" style="fill-rule:nonzero;"/>
            </g>
            <g transform="matrix(46.15,-46.1752,12.3658,172.328,2195.04,303.734)">
                <path d="M0.432,-0.076L0.416,-0.041C0.394,-0.027 0.377,-0.017 0.367,-0.013C0.351,-0.006 0.334,0 0.314,0.005C0.295,0.009 0.274,0.012 0.252,0.012C0.209,0.012 0.17,0.003 0.135,-0.015C0.1,-0.033 0.073,-0.06 0.054,-0.095C0.035,-0.131 0.025,-0.173 0.025,-0.221C0.025,-0.258 0.03,-0.292 0.04,-0.322C0.051,-0.352 0.062,-0.374 0.075,-0.389C0.085,-0.399 0.099,-0.411 0.119,-0.425C0.139,-0.438 0.159,-0.449 0.178,-0.457C0.204,-0.467 0.232,-0.473 0.262,-0.473C0.298,-0.473 0.331,-0.464 0.361,-0.448C0.39,-0.431 0.412,-0.409 0.425,-0.38C0.439,-0.351 0.446,-0.319 0.446,-0.283C0.446,-0.274 0.445,-0.263 0.444,-0.25C0.42,-0.245 0.399,-0.242 0.381,-0.241C0.346,-0.238 0.311,-0.237 0.275,-0.237L0.119,-0.237C0.119,-0.19 0.127,-0.153 0.143,-0.124C0.158,-0.095 0.18,-0.074 0.207,-0.06C0.234,-0.046 0.262,-0.04 0.292,-0.04C0.311,-0.04 0.331,-0.043 0.351,-0.049C0.371,-0.055 0.395,-0.067 0.424,-0.084L0.432,-0.076ZM0.119,-0.275C0.128,-0.274 0.145,-0.273 0.17,-0.272C0.219,-0.271 0.252,-0.27 0.271,-0.27C0.314,-0.27 0.342,-0.271 0.356,-0.272C0.356,-0.28 0.356,-0.286 0.356,-0.291C0.356,-0.342 0.346,-0.38 0.325,-0.404C0.304,-0.428 0.277,-0.44 0.242,-0.44C0.205,-0.44 0.175,-0.427 0.153,-0.4C0.13,-0.374 0.119,-0.332 0.119,-0.275Z" style="fill-rule:nonzero;"/>
            </g>
            <g transform="matrix(47.778,0,0,178.407,2214.69,294.267)">
                <path d="M0.032,-0.024C0.037,-0.055 0.04,-0.106 0.041,-0.176L0.074,-0.176C0.076,-0.128 0.079,-0.1 0.082,-0.092C0.086,-0.083 0.095,-0.074 0.109,-0.064C0.124,-0.054 0.143,-0.045 0.167,-0.038C0.191,-0.03 0.214,-0.026 0.237,-0.026C0.27,-0.026 0.3,-0.034 0.328,-0.049C0.355,-0.064 0.375,-0.084 0.388,-0.109C0.401,-0.133 0.407,-0.16 0.407,-0.188C0.407,-0.209 0.404,-0.228 0.398,-0.243C0.391,-0.259 0.382,-0.271 0.369,-0.281C0.356,-0.291 0.34,-0.297 0.32,-0.301C0.308,-0.303 0.284,-0.306 0.248,-0.311C0.212,-0.316 0.181,-0.321 0.156,-0.326C0.122,-0.337 0.097,-0.349 0.081,-0.363C0.065,-0.377 0.052,-0.395 0.042,-0.418C0.032,-0.441 0.027,-0.465 0.027,-0.492C0.027,-0.53 0.037,-0.566 0.057,-0.6C0.077,-0.634 0.107,-0.661 0.146,-0.68C0.185,-0.699 0.228,-0.708 0.274,-0.708C0.302,-0.708 0.332,-0.704 0.365,-0.697C0.397,-0.69 0.428,-0.679 0.456,-0.665C0.451,-0.645 0.448,-0.625 0.446,-0.608C0.444,-0.59 0.443,-0.564 0.442,-0.529L0.409,-0.529C0.408,-0.579 0.406,-0.607 0.404,-0.611C0.396,-0.623 0.385,-0.634 0.371,-0.643C0.338,-0.662 0.303,-0.671 0.266,-0.671C0.219,-0.671 0.181,-0.657 0.153,-0.628C0.125,-0.599 0.111,-0.562 0.111,-0.516C0.111,-0.488 0.116,-0.467 0.126,-0.452C0.136,-0.437 0.154,-0.425 0.18,-0.416C0.198,-0.409 0.227,-0.404 0.268,-0.398C0.309,-0.393 0.345,-0.387 0.378,-0.381C0.409,-0.372 0.431,-0.361 0.446,-0.348C0.46,-0.336 0.472,-0.319 0.482,-0.299C0.491,-0.279 0.496,-0.255 0.496,-0.228C0.496,-0.163 0.469,-0.106 0.416,-0.058C0.362,-0.01 0.292,0.014 0.207,0.014C0.143,0.014 0.084,0.001 0.032,-0.024Z" style="fill-rule:nonzero;"/>
            </g>
            <g transform="matrix(47.778,0,0,178.407,2239.77,294.267)">
                <path d="M0.424,-0.056L0.404,-0.023C0.382,-0.011 0.36,-0.003 0.338,0.003C0.316,0.008 0.291,0.011 0.263,0.011C0.195,0.011 0.14,-0.009 0.1,-0.051C0.059,-0.092 0.039,-0.148 0.039,-0.22C0.039,-0.258 0.045,-0.291 0.055,-0.32C0.066,-0.348 0.08,-0.369 0.096,-0.385C0.106,-0.396 0.127,-0.409 0.157,-0.427C0.187,-0.444 0.208,-0.455 0.22,-0.459C0.242,-0.469 0.269,-0.474 0.3,-0.474C0.329,-0.474 0.355,-0.471 0.379,-0.464C0.394,-0.46 0.409,-0.454 0.424,-0.445C0.42,-0.42 0.417,-0.401 0.416,-0.388C0.414,-0.375 0.412,-0.352 0.409,-0.318L0.381,-0.318C0.379,-0.349 0.377,-0.369 0.375,-0.377C0.374,-0.382 0.371,-0.386 0.367,-0.39C0.355,-0.399 0.34,-0.407 0.322,-0.414C0.303,-0.42 0.283,-0.424 0.261,-0.424C0.234,-0.424 0.21,-0.418 0.19,-0.407C0.17,-0.396 0.155,-0.378 0.144,-0.354C0.132,-0.329 0.127,-0.299 0.127,-0.263C0.127,-0.218 0.135,-0.178 0.15,-0.143C0.166,-0.107 0.187,-0.081 0.214,-0.064C0.241,-0.048 0.271,-0.04 0.304,-0.04C0.321,-0.04 0.337,-0.042 0.353,-0.046C0.369,-0.05 0.389,-0.057 0.414,-0.069L0.424,-0.056Z" style="fill-rule:nonzero;"/>
            </g>
            <g transform="matrix(47.778,0,0,178.407,2260.98,294.267)">
                <path d="M0.106,-0.334L0.08,-0.341C0.08,-0.349 0.081,-0.359 0.081,-0.372C0.081,-0.386 0.08,-0.397 0.08,-0.405C0.121,-0.432 0.155,-0.45 0.182,-0.459C0.202,-0.466 0.224,-0.47 0.25,-0.47C0.287,-0.47 0.318,-0.463 0.343,-0.449C0.369,-0.435 0.388,-0.415 0.4,-0.389C0.408,-0.37 0.413,-0.346 0.413,-0.314L0.411,-0.225L0.411,-0.079C0.411,-0.063 0.412,-0.052 0.415,-0.045C0.417,-0.041 0.42,-0.037 0.424,-0.035C0.427,-0.033 0.434,-0.031 0.444,-0.031L0.476,-0.028L0.476,0C0.449,-0.002 0.426,-0.003 0.406,-0.003C0.386,-0.003 0.36,-0.002 0.328,0L0.33,-0.086C0.264,-0.036 0.224,-0.008 0.212,-0.001C0.2,0.005 0.184,0.008 0.165,0.008C0.126,0.008 0.095,-0.002 0.073,-0.023C0.051,-0.044 0.04,-0.072 0.04,-0.107C0.04,-0.129 0.044,-0.15 0.052,-0.168C0.059,-0.187 0.068,-0.202 0.079,-0.213C0.09,-0.224 0.101,-0.232 0.112,-0.237C0.131,-0.246 0.161,-0.255 0.204,-0.265C0.246,-0.275 0.288,-0.283 0.33,-0.288C0.33,-0.319 0.327,-0.343 0.319,-0.36C0.311,-0.377 0.298,-0.391 0.279,-0.402C0.261,-0.413 0.238,-0.419 0.211,-0.419C0.192,-0.419 0.175,-0.416 0.161,-0.411C0.146,-0.406 0.138,-0.402 0.134,-0.398L0.125,-0.38C0.117,-0.361 0.11,-0.346 0.106,-0.334ZM0.33,-0.258C0.288,-0.251 0.252,-0.243 0.222,-0.234C0.192,-0.225 0.171,-0.216 0.158,-0.207C0.151,-0.201 0.144,-0.193 0.139,-0.182C0.13,-0.165 0.126,-0.147 0.126,-0.127C0.126,-0.103 0.133,-0.085 0.146,-0.071C0.159,-0.058 0.178,-0.051 0.202,-0.051C0.223,-0.051 0.245,-0.057 0.266,-0.07C0.288,-0.082 0.309,-0.101 0.33,-0.126L0.33,-0.258Z" style="fill-rule:nonzero;"/>
            </g>
            <g transform="matrix(47.778,0,0,178.407,2284.87,294.267)">
                <path d="M0.018,-0.402L0.018,-0.43C0.023,-0.43 0.036,-0.432 0.055,-0.434C0.074,-0.437 0.095,-0.442 0.118,-0.448C0.141,-0.455 0.158,-0.462 0.17,-0.468C0.174,-0.47 0.176,-0.471 0.179,-0.471C0.181,-0.471 0.183,-0.47 0.184,-0.468C0.186,-0.467 0.187,-0.464 0.187,-0.46C0.187,-0.458 0.186,-0.454 0.186,-0.448C0.185,-0.439 0.185,-0.43 0.185,-0.422L0.185,-0.371C0.24,-0.422 0.274,-0.451 0.288,-0.457C0.306,-0.466 0.333,-0.47 0.368,-0.47C0.41,-0.47 0.445,-0.461 0.475,-0.442C0.505,-0.423 0.527,-0.399 0.54,-0.369C0.554,-0.34 0.561,-0.308 0.561,-0.274C0.561,-0.253 0.558,-0.234 0.553,-0.216C0.549,-0.198 0.543,-0.18 0.535,-0.164C0.528,-0.148 0.52,-0.133 0.511,-0.12C0.502,-0.106 0.494,-0.096 0.486,-0.089C0.481,-0.085 0.469,-0.075 0.45,-0.06C0.431,-0.045 0.411,-0.031 0.389,-0.02C0.368,-0.009 0.353,-0.002 0.344,0C0.326,0.006 0.306,0.009 0.285,0.009C0.269,0.009 0.253,0.007 0.238,0.003C0.222,0 0.205,-0.007 0.185,-0.017L0.185,0.061C0.187,0.143 0.188,0.189 0.188,0.197C0.188,0.213 0.19,0.225 0.194,0.232C0.195,0.236 0.197,0.239 0.2,0.241C0.203,0.243 0.207,0.245 0.212,0.246C0.215,0.246 0.234,0.247 0.27,0.248L0.27,0.275C0.229,0.274 0.175,0.273 0.108,0.273C0.071,0.273 0.043,0.274 0.023,0.275L0.023,0.248L0.069,0.247C0.076,0.247 0.081,0.246 0.085,0.243C0.089,0.241 0.092,0.239 0.094,0.235C0.097,0.229 0.1,0.217 0.101,0.201C0.101,0.196 0.102,0.15 0.104,0.061L0.104,-0.112C0.104,-0.169 0.103,-0.226 0.102,-0.286C0.1,-0.345 0.099,-0.377 0.097,-0.383C0.096,-0.388 0.094,-0.392 0.09,-0.395C0.087,-0.398 0.083,-0.399 0.078,-0.4L0.018,-0.402ZM0.185,-0.101C0.202,-0.083 0.222,-0.069 0.244,-0.059C0.266,-0.049 0.29,-0.044 0.314,-0.044C0.344,-0.044 0.371,-0.051 0.395,-0.066C0.419,-0.081 0.438,-0.104 0.452,-0.135C0.467,-0.167 0.474,-0.201 0.474,-0.237C0.474,-0.273 0.467,-0.304 0.453,-0.33C0.44,-0.356 0.421,-0.376 0.396,-0.389C0.371,-0.402 0.346,-0.409 0.321,-0.409C0.303,-0.409 0.284,-0.405 0.266,-0.398C0.248,-0.39 0.232,-0.38 0.217,-0.366C0.203,-0.352 0.193,-0.338 0.188,-0.326C0.186,-0.319 0.185,-0.308 0.185,-0.29L0.185,-0.101Z" style="fill-rule:nonzero;"/>
            </g>
            <g transform="matrix(46.15,-46.1752,12.3658,172.328,2316.82,303.734)">
                <path d="M0.432,-0.076L0.416,-0.041C0.394,-0.027 0.377,-0.017 0.367,-0.013C0.351,-0.006 0.334,0 0.314,0.005C0.295,0.009 0.274,0.012 0.252,0.012C0.209,0.012 0.17,0.003 0.135,-0.015C0.1,-0.033 0.073,-0.06 0.054,-0.095C0.035,-0.131 0.025,-0.173 0.025,-0.221C0.025,-0.258 0.03,-0.292 0.04,-0.322C0.051,-0.352 0.062,-0.374 0.075,-0.389C0.085,-0.399 0.099,-0.411 0.119,-0.425C0.139,-0.438 0.159,-0.449 0.178,-0.457C0.204,-0.467 0.232,-0.473 0.262,-0.473C0.298,-0.473 0.331,-0.464 0.361,-0.448C0.39,-0.431 0.412,-0.409 0.425,-0.38C0.439,-0.351 0.446,-0.319 0.446,-0.283C0.446,-0.274 0.445,-0.263 0.444,-0.25C0.42,-0.245 0.399,-0.242 0.381,-0.241C0.346,-0.238 0.311,-0.237 0.275,-0.237L0.119,-0.237C0.119,-0.19 0.127,-0.153 0.143,-0.124C0.158,-0.095 0.18,-0.074 0.207,-0.06C0.234,-0.046 0.262,-0.04 0.292,-0.04C0.311,-0.04 0.331,-0.043 0.351,-0.049C0.371,-0.055 0.395,-0.067 0.424,-0.084L0.432,-0.076ZM0.119,-0.275C0.128,-0.274 0.145,-0.273 0.17,-0.272C0.219,-0.271 0.252,-0.27 0.271,-0.27C0.314,-0.27 0.342,-0.271 0.356,-0.272C0.356,-0.28 0.356,-0.286 0.356,-0.291C0.356,-0.342 0.346,-0.38 0.325,-0.404C0.304,-0.428 0.277,-0.44 0.242,-0.44C0.205,-0.44 0.175,-0.427 0.153,-0.4C0.13,-0.374 0.119,-0.332 0.119,-0.275Z" style="fill-rule:nonzero;"/>
            </g>
        </g>
    </g>
</svg>
