<?xml version="1.0" encoding="UTF-8" standalone="no"?>
<!DOCTYPE svg PUBLIC "-//W3C//DTD SVG 1.1//EN" "http://www.w3.org/Graphics/SVG/1.1/DTD/svg11.dtd">
<svg width="100%" height="100%" viewBox="0 0 209 38" version="1.1" xmlns="http://www.w3.org/2000/svg" xmlns:xlink="http://www.w3.org/1999/xlink" xml:space="preserve" xmlns:serif="http://www.serif.com/" style="fill-rule:evenodd;clip-rule:evenodd;stroke-linejoin:round;stroke-miterlimit:2;">
    <g transform="matrix(1,0,0,1,-2019.39,-659.887)">
        <g id="_2015-2020" serif:id="2015-2020" transform="matrix(0.873311,0,0,0.224206,177.202,623.972)">
            <g transform="matrix(45.8027,0,0,178.407,2109.06,289.354)">
                <path d="M0.23,0L0.362,0L0.362,-0.58L0.584,-0.58L0.584,-0.7L0.008,-0.7L0.008,-0.58L0.23,-0.58L0.23,0Z" style="fill-rule:nonzero;"/>
            </g>
            <g transform="matrix(45.8027,0,0,178.407,2136.77,289.354)">
                <path d="M0.162,-0.495L0.162,0L0.04,0L0.04,-0.495L0.162,-0.495ZM0.029,-0.632C0.029,-0.727 0.173,-0.727 0.173,-0.632C0.173,-0.537 0.029,-0.537 0.029,-0.632Z" style="fill-rule:nonzero;"/>
            </g>
            <g transform="matrix(45.8027,0,0,178.407,2147.4,289.354)">
                <path d="M0.49,0L0.49,-0.264C0.49,-0.329 0.531,-0.386 0.597,-0.386C0.663,-0.386 0.69,-0.331 0.69,-0.266L0.69,0L0.812,0L0.812,-0.266C0.812,-0.414 0.743,-0.5 0.603,-0.5C0.539,-0.5 0.482,-0.48 0.438,-0.41C0.41,-0.478 0.351,-0.502 0.292,-0.502C0.245,-0.502 0.188,-0.484 0.162,-0.434L0.153,-0.494L0.04,-0.494L0.04,0L0.162,0L0.162,-0.264C0.162,-0.329 0.201,-0.388 0.267,-0.388C0.334,-0.388 0.368,-0.329 0.368,-0.264L0.368,0L0.49,0Z" style="fill-rule:nonzero;"/>
            </g>
            <g transform="matrix(44.242,-46.1752,11.8546,172.328,2191.8,300.531)">
                <path d="M0.529,-0.203C0.548,-0.406 0.445,-0.508 0.28,-0.508C0.12,-0.508 0.018,-0.4 0.018,-0.25C0.018,-0.092 0.119,0.013 0.289,0.013C0.364,0.013 0.449,-0.013 0.501,-0.067L0.423,-0.144C0.395,-0.115 0.336,-0.098 0.291,-0.098C0.205,-0.098 0.152,-0.142 0.144,-0.203L0.529,-0.203ZM0.146,-0.304C0.164,-0.368 0.218,-0.4 0.284,-0.4C0.354,-0.4 0.404,-0.368 0.412,-0.304L0.146,-0.304Z" style="fill-rule:nonzero;"/>
            </g>
            <g transform="matrix(45.8027,0,0,178.407,2215.14,289.354)">
                <path d="M0.586,-0.585C0.533,-0.693 0.42,-0.724 0.311,-0.724C0.182,-0.723 0.04,-0.664 0.04,-0.52C0.04,-0.363 0.172,-0.325 0.315,-0.308C0.408,-0.298 0.477,-0.271 0.477,-0.205C0.477,-0.129 0.399,-0.1 0.316,-0.1C0.231,-0.1 0.15,-0.134 0.119,-0.211L0.009,-0.154C0.061,-0.026 0.171,0.018 0.314,0.018C0.47,0.018 0.608,-0.049 0.608,-0.205C0.608,-0.372 0.472,-0.41 0.326,-0.428C0.242,-0.438 0.17,-0.455 0.17,-0.516C0.17,-0.568 0.217,-0.609 0.315,-0.609C0.391,-0.609 0.457,-0.571 0.481,-0.531L0.586,-0.585Z" style="fill-rule:nonzero;"/>
            </g>
            <g transform="matrix(45.8027,0,0,178.407,2245.41,289.354)">
                <path d="M0.381,-0.143C0.351,-0.113 0.312,-0.102 0.273,-0.102C0.197,-0.102 0.133,-0.152 0.133,-0.246C0.133,-0.332 0.193,-0.392 0.275,-0.392C0.309,-0.392 0.345,-0.379 0.374,-0.353L0.451,-0.434C0.397,-0.487 0.343,-0.507 0.273,-0.507C0.13,-0.507 0.011,-0.421 0.011,-0.246C0.011,-0.071 0.13,0.015 0.273,0.015C0.346,0.015 0.406,-0.007 0.463,-0.063L0.381,-0.143Z" style="fill-rule:nonzero;"/>
            </g>
            <g transform="matrix(45.8027,0,0,178.407,2267.26,289.354)">
                <path d="M0.427,-0.425C0.399,-0.474 0.336,-0.505 0.27,-0.505C0.126,-0.506 0.013,-0.417 0.013,-0.247C0.013,-0.074 0.121,0.016 0.267,0.015C0.322,0.014 0.399,-0.014 0.427,-0.072L0.433,0L0.548,0L0.548,-0.493L0.431,-0.493L0.427,-0.425ZM0.281,-0.396C0.473,-0.396 0.473,-0.097 0.281,-0.097C0.2,-0.097 0.135,-0.153 0.135,-0.247C0.135,-0.341 0.2,-0.396 0.281,-0.396Z" style="fill-rule:nonzero;"/>
            </g>
            <g transform="matrix(45.8027,0,0,178.407,2295.25,289.354)">
                <path d="M0.313,-0.106C0.23,-0.106 0.173,-0.169 0.173,-0.246C0.173,-0.323 0.225,-0.386 0.313,-0.386C0.401,-0.386 0.453,-0.323 0.453,-0.246C0.453,-0.169 0.396,-0.106 0.313,-0.106ZM0.162,0.206L0.162,-0.058C0.197,-0.004 0.274,0.012 0.326,0.012C0.484,0.012 0.575,-0.102 0.575,-0.246C0.575,-0.391 0.474,-0.504 0.322,-0.504C0.266,-0.504 0.2,-0.48 0.162,-0.425L0.154,-0.493L0.04,-0.493L0.04,0.206L0.162,0.206Z" style="fill-rule:nonzero;"/>
            </g>
            <g transform="matrix(44.242,-46.1752,11.8546,172.328,2327.24,300.531)">
                <path d="M0.529,-0.203C0.548,-0.406 0.445,-0.508 0.28,-0.508C0.12,-0.508 0.018,-0.4 0.018,-0.25C0.018,-0.092 0.119,0.013 0.289,0.013C0.364,0.013 0.449,-0.013 0.501,-0.067L0.423,-0.144C0.395,-0.115 0.336,-0.098 0.291,-0.098C0.205,-0.098 0.152,-0.142 0.144,-0.203L0.529,-0.203ZM0.146,-0.304C0.164,-0.368 0.218,-0.4 0.284,-0.4C0.354,-0.4 0.404,-0.368 0.412,-0.304L0.146,-0.304Z" style="fill-rule:nonzero;"/>
            </g>
        </g>
    </g>
</svg>
