<?xml version="1.0" encoding="UTF-8" standalone="no"?>
<svg
        xmlns:dc="http://purl.org/dc/elements/1.1/"
        xmlns:cc="http://creativecommons.org/ns#"
        xmlns:rdf="http://www.w3.org/1999/02/22-rdf-syntax-ns#"
        xmlns="http://www.w3.org/2000/svg"
        xmlns:xlink="http://www.w3.org/1999/xlink"
        enable-background="new"
        id="svg914"
        style="fill-rule:evenodd;clip-rule:evenodd;stroke-linejoin:round;stroke-miterlimit:2;"
        xml:space="preserve"
        version="1.1"
        viewBox="0 0 4678 3308"
        height="100%"
        width="100%"><metadata
     id="metadata918"><rdf:RDF><cc:Work
         rdf:about=""><dc:format>image/svg+xml</dc:format><dc:type
        rdf:resource="http://purl.org/dc/dcmitype/StillImage"/><dc:title></dc:title></cc:Work></rdf:RDF></metadata>
    <defs
            id="defs912"><linearGradient
       id="linearGradient1189"><stop
         id="stop1185"
         offset="0"
         style="stop-color:#f19173;stop-opacity:0.73725492" /><stop
            id="stop1187"
            offset="1"
            style="stop-color:#f5b884;stop-opacity:0.62352943"/></linearGradient>
        <radialGradient
                gradientTransform="matrix(-2840.25,1510.03,-495.361,-931.736,3301.6,1404.2)"
                gradientUnits="userSpaceOnUse"
                r="1"
       cy="0"
       cx="0"
       id="_Radial1"><stop
         id="stop881"
         style="stop-color:#ffc9bf;stop-opacity:1"
         offset="0" /><stop
         id="stop883"
         style="stop-color:#ffb77f;stop-opacity:1"
         offset="0.53" /><stop
         id="stop885"
         style="stop-color:#ffffff;stop-opacity:1"
         offset="1" /></radialGradient><filter
       height="984.903"
       width="3461.22"
       y="1614.87"
       x="860.128"
       filterUnits="userSpaceOnUse"
       id="_Effect2"><feGaussianBlur
         id="feGaussianBlur888"
         stdDeviation="1.93333"
         in="SourceGraphic" /></filter><filter
       height="1006.36"
       width="2050.43"
       y="779.195"
       x="515.604"
       filterUnits="userSpaceOnUse"
       id="_Effect3"><feGaussianBlur
         id="feGaussianBlur891"
         stdDeviation="1.93333"
         in="SourceGraphic" /></filter><filter
       height="680.477"
       width="164.098"
       y="1678.92"
       x="1840.51"
       filterUnits="userSpaceOnUse"
       id="_Effect4"><feGaussianBlur
         id="feGaussianBlur894"
         stdDeviation="1.93333"
         in="SourceGraphic" /></filter><filter
       height="138.829"
       width="138.829"
       y="1670.64"
       x="3165.61"
       filterUnits="userSpaceOnUse"
       id="_Effect5"><feGaussianBlur
         id="feGaussianBlur897"
         stdDeviation="1.93333"
         in="SourceGraphic" /></filter><filter
       height="762.852"
       width="471.228"
       y="1831.28"
       x="2332.88"
       filterUnits="userSpaceOnUse"
       id="_Effect6"><feGaussianBlur
         id="feGaussianBlur900"
         stdDeviation="1.93333"
         in="SourceGraphic" /></filter><filter
       height="199.294"
       width="173.45"
       y="2036.46"
       x="866.708"
       filterUnits="userSpaceOnUse"
       id="_Effect7"><feGaussianBlur
         id="feGaussianBlur903"
         stdDeviation="1.93333"
         in="SourceGraphic" /></filter><filter
       height="224.118"
       width="446.303"
       y="2179.48"
       x="1374.96"
       filterUnits="userSpaceOnUse"
       id="_Effect8"><feGaussianBlur
         id="feGaussianBlur906"
         stdDeviation="1.93333"
         in="SourceGraphic" /></filter><filter
       height="569.97"
       width="473.645"
       y="1955.8"
       x="3301.86"
       filterUnits="userSpaceOnUse"
       id="_Effect9"><feGaussianBlur
         id="feGaussianBlur909"
         stdDeviation="1.93333"
         in="SourceGraphic" /></filter><filter
       height="1.0566373"
       y="-0.028318645"
       width="1.0263857"
       x="-0.013192841"
       id="filter1012"
       style="color-interpolation-filters:sRGB"><feGaussianBlur
         id="feGaussianBlur1014"
         stdDeviation="18.086644" /></filter><linearGradient
       gradientUnits="userSpaceOnUse"
       y2="2844.7559"
       x2="519.38184"
       y1="648.61902"
       x1="4614.5283"
       id="linearGradient1191"
       xlink:href="#linearGradient1189" /></defs><g
     style="display:inline"
     id="layer2"><path
       id="path817"
       d="M 1243.1992 1672.4043 L 1165.8398 2116.5918 C 1161.5078 2141.4618 1151.6198 2160.5961 1136.1758 2173.9961 C 1120.7318 2187.3961 1099.4174 2191.7291 1072.2344 2186.9941 C 1042.7374 2181.8571 1022.5163 2168.8022 1011.5703 2147.8262 C 1000.6233 2126.8502 998.07011 2099.5909 1003.9121 2066.0449 L 905.88086 2048.9707 C 895.00186 2111.4337 903.36284 2162.6482 930.96484 2202.6152 C 958.56684 2242.5812 1001.8654 2267.7026 1060.8594 2277.9766 C 1115.2264 2287.4456 1160.4045 2279.522 1196.3965 2254.207 C 1232.3895 2228.892 1255.1702 2188.7614 1264.7402 2133.8164 L 1342.0996 1689.6309 L 1243.1992 1672.4043 z M 3082.877 1679.459 C 3027.4881 1679.0261 2984.7065 1691.2748 2954.5312 1716.207 C 2920.0452 1744.701 2902.0545 1788.5873 2900.5605 1847.8633 L 2900.1621 1863.709 L 2835.0176 1862.0664 L 2832.8438 1948.3398 L 2897.9883 1949.9805 L 2887.9375 2348.7715 L 2989.1758 2351.3242 L 2999.2266 1952.5332 L 3177.0527 1957.0156 L 3167.002 2355.8066 L 3267.3594 2358.3359 L 3279.5859 1873.2715 L 3001.4004 1866.2598 L 3001.5996 1858.3379 C 3002.4726 1823.7119 3010.5696 1799.5449 3025.8906 1785.8359 C 3041.2116 1772.1279 3067.637 1766.3321 3105.168 1768.4531 L 3107.3867 1680.4219 C 3098.9595 1679.8424 3090.7896 1679.5208 3082.877 1679.459 z M 3235.0293 1682.2461 A 57.813999 57.813999 0 0 0 3177.2168 1740.0605 A 57.813999 57.813999 0 0 0 3235.0293 1797.875 A 57.813999 57.813999 0 0 0 3292.8438 1740.0605 A 57.813999 57.813999 0 0 0 3235.0293 1682.2461 z M 1952.6602 1690.8594 L 1852.4609 1697.0234 L 1892.4668 2347.4473 L 1992.668 2341.2832 L 1952.6602 1690.8594 z M 2116.8516 1792.752 L 2016.3086 2436.6016 L 2115.4961 2452.0898 L 2216.0391 1808.2402 L 2116.8516 1792.752 z M 3856.832 1818.8086 L 3760.7676 2463.3418 L 3860.0605 2478.1406 L 3898.0977 2222.9414 C 3905.3677 2174.1654 3922.7884 2138.9229 3950.3594 2117.2129 C 3977.9314 2095.5019 4011.4584 2087.5896 4050.9434 2093.4746 C 4089.2674 2099.1866 4117.7095 2115.444 4136.2695 2142.25 C 4154.8295 2169.055 4160.9079 2203.9412 4154.5039 2246.9102 L 4114.3906 2516.0469 L 4213.6836 2530.8457 L 4255.3555 2251.2578 C 4265.3075 2184.4818 4256.1275 2130.5835 4227.8145 2089.5625 C 4199.5025 2048.5425 4157.4745 2023.8783 4101.7305 2015.5703 C 4062.2455 2009.6853 4025.9339 2014.3635 3992.7969 2029.6055 C 3959.6609 2044.8475 3934.0228 2069.5182 3915.8828 2103.6152 L 3956.125 1833.6074 L 3856.832 1818.8086 z M 2749.1641 1843.2227 L 2637.5293 1849.9414 L 2524.4609 2214.0371 L 2358 1866.7598 L 2245.4844 1873.5312 L 2477.873 2334.1738 L 2387.8164 2582.1992 L 2499.4512 2575.4824 L 2749.1641 1843.2227 z M 1590.7812 1863.9727 C 1575.6773 1863.9039 1560.0456 1865.0896 1543.8828 1867.5312 C 1497.4438 1874.5463 1457.8635 1890.618 1425.1445 1915.748 C 1392.4255 1940.877 1368.7148 1973.5524 1354.0098 2013.7734 C 1339.3048 2053.9934 1335.7227 2099.0643 1343.2637 2148.9863 C 1350.8927 2199.4893 1367.6706 2241.7813 1393.5996 2275.8633 C 1419.5296 2309.9463 1451.8346 2334.1599 1490.5156 2348.5039 C 1529.1976 2362.8469 1571.7583 2366.5111 1618.1973 2359.4961 C 1658.2513 2353.4451 1693.4145 2340.5646 1723.6855 2320.8516 C 1753.9565 2301.1386 1777.2774 2276.6851 1793.6484 2247.4941 C 1810.0194 2218.3031 1818.8543 2186.3908 1820.1543 2151.7578 L 1713.9258 2167.8047 C 1712.9108 2196.4577 1702.2083 2220.9325 1681.8223 2241.2305 C 1661.4353 2261.5285 1634.6993 2274.1778 1601.6113 2279.1758 C 1563.8793 2284.8758 1530.4456 2277.7545 1501.3086 2257.8125 C 1472.1726 2237.8705 1453.0055 2203.3592 1443.8105 2154.2812 L 1813.002 2098.5117 C 1813.483 2085.9707 1812.4941 2071.5743 1810.0391 2055.3203 C 1803.7251 2013.5253 1788.5722 1977.0738 1764.5762 1945.9648 C 1740.5812 1914.8558 1709.5531 1892.2308 1671.4961 1878.0898 C 1646.5212 1868.8098 1619.6161 1864.104 1590.7812 1863.9727 z M 1578.3809 1944.8867 C 1594.6616 1944.6596 1610.4121 1946.9684 1625.6348 1951.8125 C 1647.7768 1958.8585 1666.397 1972.0768 1681.498 1991.4668 C 1696.598 2010.8568 1705.9377 2036.312 1709.5117 2067.834 L 1436.9707 2109.0039 C 1432.2777 2062.2149 1441.1957 2024.9452 1463.7227 1997.1992 C 1486.2497 1969.4532 1516.9586 1952.6426 1555.8516 1946.7676 C 1563.4706 1945.6166 1570.9805 1944.99 1578.3809 1944.8867 z M 3521.2148 1989.6914 C 3484.4123 1989.4679 3453.2563 1997.2697 3427.748 2013.0977 C 3393.737 2034.2027 3373.9358 2065.1112 3368.3418 2105.8242 C 3364.0258 2137.2312 3368.3169 2163.1538 3381.2129 2183.5918 C 3394.1079 2204.0308 3410.9008 2219.82 3431.5918 2230.959 C 3452.2838 2242.098 3479.5189 2254.1372 3513.2969 2267.0742 C 3539.8339 2276.6462 3560.5736 2285.274 3575.5176 2292.957 C 3590.4626 2300.64 3602.4886 2310.1447 3611.5996 2321.4707 C 3620.7096 2332.7967 3624.1061 2346.8928 3621.7891 2363.7598 C 3619.1521 2382.9528 3610.1399 2397.8613 3594.7539 2408.4883 C 3579.3679 2419.1143 3559.7523 2422.7897 3535.9062 2419.5137 C 3502.7542 2414.9587 3477.119 2403.1406 3459 2384.0586 C 3440.882 2364.9766 3432.1655 2342.1482 3432.8535 2315.5762 L 3336.0156 2302.2715 C 3336.7036 2353.3285 3353.5974 2395.3537 3386.6934 2428.3457 C 3419.7894 2461.3377 3466.2903 2481.9487 3526.1953 2490.1797 C 3577.9593 2497.2927 3620.8278 2490.441 3654.7988 2469.627 C 3688.7698 2448.814 3708.5114 2418.3419 3714.0254 2378.2109 C 3718.5004 2345.6409 3714.0396 2318.8051 3700.6426 2297.7051 C 3687.2446 2276.6051 3669.9508 2260.1545 3648.7578 2248.3535 C 3627.5648 2236.5525 3599.4976 2224.1039 3564.5566 2211.0059 C 3538.0996 2200.8529 3517.8151 2192.1402 3503.7031 2184.8672 C 3489.5911 2177.5952 3478.2301 2168.6279 3469.6211 2157.9629 C 3461.0121 2147.2989 3457.7482 2134.4052 3459.8262 2119.2832 C 3462.6232 2098.9272 3471.6745 2083.7266 3486.9805 2073.6816 C 3502.2865 2063.6366 3522.4441 2060.3316 3547.4531 2063.7676 C 3577.6971 2067.9236 3600.8809 2079.2575 3617.0039 2097.7695 C 3633.1279 2116.2805 3641.4254 2138.9028 3641.9004 2165.6348 L 3736.1211 2178.5801 C 3735.1931 2129.2681 3719.695 2087.8791 3689.627 2054.4141 C 3659.559 2020.9501 3616.3164 2000.3408 3559.9004 1992.5898 C 3546.3779 1990.7318 3533.4824 1989.7659 3521.2148 1989.6914 z "
       style="clip-rule:evenodd;fill:#53bef1;fill-rule:nonzero;stroke-linejoin:round;stroke-miterlimit:2;filter:url(#_Effect2);fill-opacity:1" /><path
       id="path835"
       d="M 1894.8125 790.79492 L 1829.7383 1439.1914 L 1929.627 1449.2168 L 1994.6992 800.82031 L 1894.8125 790.79492 z M 891.31641 887.51953 L 792.01367 902.24609 L 858.15625 1348.2422 C 861.85925 1373.2132 858.48516 1394.4865 848.03516 1412.0605 C 837.58416 1429.6345 818.71197 1440.4461 791.41797 1444.4941 C 761.80097 1448.8861 738.50158 1442.8451 721.51758 1426.3711 C 704.53358 1409.8981 693.54383 1384.8226 688.54883 1351.1406 L 590.11523 1365.7363 C 599.41623 1428.4553 623.44989 1474.4488 662.21289 1503.7168 C 700.97589 1532.9848 749.97303 1543.2254 809.20703 1534.4414 C 863.79503 1526.3454 904.19616 1504.6262 930.41016 1469.2832 C 956.62416 1433.9402 965.64098 1388.6846 957.45898 1333.5156 L 891.31641 887.51953 z M 2055.2852 991.85742 L 2188.0234 1490.4336 L 2048.9023 1714.6504 L 2159.5352 1731.0234 L 2554.4395 1065.7344 L 2443.8066 1049.3594 L 2258.3086 1382.4395 L 2166.7891 1008.3594 L 2055.2852 991.85742 z M 1679.7598 996.1582 L 1580.2559 1009.4609 L 1666.6016 1655.3672 L 1766.1074 1642.0645 L 1679.7598 996.1582 z M 1266.5 1056.9902 C 1219.534 1056.9902 1177.4128 1066.9706 1140.1328 1086.9316 C 1102.8538 1106.8916 1073.4983 1135.6575 1052.0703 1173.2305 C 1030.6423 1210.8035 1019.9297 1254.8333 1019.9297 1305.3223 C 1019.9297 1355.8103 1030.6423 1399.9895 1052.0703 1437.8555 C 1073.4983 1475.7215 1102.8538 1504.6357 1140.1328 1524.5957 C 1177.4128 1544.5567 1219.534 1554.5352 1266.5 1554.5352 C 1313.466 1554.5352 1355.7356 1544.5567 1393.3086 1524.5957 C 1430.8806 1504.6357 1460.2341 1475.8679 1481.3691 1438.2949 C 1502.5041 1400.7219 1513.0723 1356.3973 1513.0723 1305.3223 C 1513.0723 1254.8333 1502.5041 1210.8035 1481.3691 1173.2305 C 1460.2341 1135.6575 1430.8806 1106.8916 1393.3086 1086.9316 C 1355.7356 1066.9706 1313.466 1056.9902 1266.5 1056.9902 z M 1266.5 1144.1719 C 1292.332 1144.1719 1316.1081 1150.0412 1337.8301 1161.7832 C 1359.5521 1173.5242 1377.0176 1191.5774 1390.2266 1215.9414 C 1403.4366 1240.3044 1410.0391 1270.0973 1410.0391 1305.3223 C 1410.0391 1341.1333 1403.4366 1371.0745 1390.2266 1395.1445 C 1377.0176 1419.2145 1359.5521 1437.1213 1337.8301 1448.8633 C 1316.1081 1460.6043 1292.332 1466.4746 1266.5 1466.4746 C 1240.669 1466.4746 1216.8939 1460.6043 1195.1719 1448.8633 C 1173.4499 1437.1213 1155.9834 1419.2145 1142.7734 1395.1445 C 1129.5644 1371.0745 1122.9609 1341.1333 1122.9609 1305.3223 C 1122.9609 1270.0973 1129.5644 1240.3044 1142.7734 1215.9414 C 1155.9834 1191.5774 1173.4499 1173.5242 1195.1719 1161.7832 C 1216.8939 1150.0412 1240.669 1144.1719 1266.5 1144.1719 z "
       style="clip-rule:evenodd;fill:#53bef1;fill-rule:nonzero;stroke-linejoin:round;stroke-miterlimit:2;filter:url(#_Effect3);fill-opacity:1" /></g><g
     style="display:inline"
     id="layer1"><path
       id="path815"
       style="clip-rule:evenodd;fill:url(#linearGradient1191);fill-rule:nonzero;stroke-linejoin:round;stroke-miterlimit:2;stroke:none;stroke-opacity:1;stroke-width:11.58425197;stroke-dasharray:none;fill-opacity:1"
       d="M 4359.52,908.067 C 4116.921,367.39 3479.662,124.859 2938.96,367.464 l -24.659,11.069 c -151.17,67.823 -228.682,230.071 -196.511,384.251 -105.266,50.149 -190.046,140.974 -231.3,261.085 -217.6,-13.328 -386.494,46.484 -491.817,175.309 -86.094,105.303 -135.928,222.872 -179.895,326.603 -75.492,178.111 -130.044,306.802 -324.597,351.2 -356.331,81.309 -692.482,-104.093 -986.582,325.867 -31.613,46.219 -19.774,109.315 26.439,140.925 46.112,31.536 109.233,19.894 140.935,-26.443 146.035,-213.493 286.727,-213.131 499.67,-212.575 107.909,0.282 230.204,0.6 364.643,-30.08 437.351,-99.808 416.803,-503.047 616.377,-747.146 72.562,-88.749 198.267,-107.427 312.738,-101.79 7.06,59.215 25.858,116.758 56.156,169.549 -42.754,69.13 -61.544,150.678 -54.129,231.176 -126.578,79.525 -223.747,179.34 -289.219,297.597 -137.625,248.654 -300.977,376.289 -472.392,369.103 -114.963,-4.819 -464.821,-19.48 -816.064,187.462 -237.515,139.935 -401.266,95.069 -419.292,89.07 -52.043,-19.805 -110.383,6.58 -130.189,58.624 -19.806,52.043 6.039,111.045 58.082,130.85 10.374,3.948 257.89,94.39 594.335,-103.827 268.595,-158.245 530.781,-166.859 704.63,-159.571 176.65,7.399 434.262,-68.734 658.297,-473.502 43.163,-77.957 106.186,-145.991 187.916,-203.109 56.807,72.969 139.33,122.701 230.419,138.656 15.896,47.571 39.369,91.48 69.247,130.456 -86.57,144.886 -181.204,239.75 -264.835,263.779 -291.009,83.632 -472.391,450.801 -867.046,403.752 -474.799,-56.604 -620.347,92.836 -644.694,123.363 -3.633,4.36 -9.135,13.629 -13.467,25.013 -19.919,52.34 5.391,113.467 57.732,133.386 39.617,15.077 78.162,-0.233 111.032,-28.03 9.486,-8.223 117.943,-93.798 465.391,-52.375 487.321,58.1 722.065,-345.543 947.066,-410.213 155.543,-44.708 279.546,-188.902 367.266,-329.112 120.961,59.754 256.177,63.636 375.907,13.147 93.671,126.372 266.389,176.581 417.669,108.698 l 24.671,-11.064 c 0.01,0 0.015,0 0.018,-0.01 540.698,-242.598 783.212,-879.85 540.611,-1420.54 z m -1405.09,939.144 c -7.427,-52.549 -54.094,-90.473 -107.055,-87 -70.104,4.616 -136.549,-35.366 -165.32,-99.488 -28.774,-64.131 -14.468,-140.341 35.59,-189.644 37.807,-37.238 40.505,-97.332 6.184,-137.804 -111.646,-131.686 -58.237,-328.377 91.86,-392.067 33.9,33.008 73.607,58.092 116.473,74.492 -66.387,176.232 20.789,375.146 199.456,443.436 -67.026,177.095 21.243,375.413 198.537,443.571 -16.249,42.924 -23.911,89.283 -21.79,136.544 -147.896,70.089 -329.875,-21.637 -353.935,-192.04 z m 781.482,296.39 -24.68,11.068 c -94.253,42.285 -201.921,-27.352 -199.94,-132.199 1.3,-54.862 34.23,-104.616 83.719,-126.826 84.118,-37.738 78.285,-160.631 -10.741,-188.999 -24.87,-7.932 -50.945,-5.589 -72.272,3.986 -115.8,51.963 -235.314,-62.792 -190.719,-179.975 12.49,-32.819 38.563,-62.922 74.496,-79.044 51.092,-22.924 73.924,-82.922 51,-134.013 -22.92,-51.083 -82.921,-73.924 -134.013,-51 -71.91,32.265 -155.828,-0.575 -187.623,-71.403 -32.042,-71.413 -0.011,-155.581 71.402,-187.623 54.703,-24.544 76.388,-91.01 46.281,-143.258 -25.664,-44.519 -81.4,-63.249 -129.293,-41.755 -56.77,25.472 -123.458,9.806 -163.245,-34.186 -64.143,-70.3 -41.962,-184.897 47.036,-224.834 l 24.659,-11.07 c 438.675,-196.826 955.692,-0.069 1152.53,438.61 196.827,438.675 0.07,955.692 -438.598,1152.52 z" /></g><g
     style="display:inline"
     id="layer7"><path
       id="path4224"
       d="m 2443.8066,1049.3594 -101.0097,181.373 c 38.4697,-5.7139 78.2075,-6.8604 116.7871,-5.1972 l 94.8555,-159.8008 z m -263.1738,15.5859 c -33.4387,13.2792 -64.4322,29.6161 -92.8516,48.9727 l 58.6153,220.1621 c 1.7399,-2.1949 3.4914,-4.3807 5.2656,-6.5508 21.7853,-26.6451 48.3667,-46.9675 77.9902,-62.2188 z m -232.1836,196.7227 c -39.6892,59.1692 -70.4491,120.4487 -97.1211,179.6894 l 78.2989,7.8594 z m 1286.5801,420.5781 a 57.813999,57.813999 0 0 0 -57.8125,57.8144 57.813999,57.813999 0 0 0 57.8125,57.8145 57.813999,57.813999 0 0 0 57.8145,-57.8145 57.813999,57.813999 0 0 0 -57.8145,-57.8144 z m -1282.3691,8.6133 -100.1993,6.164 10.5254,171.1133 c 36.2229,-48.326 65.0846,-101.3626 90.9766,-156.1133 z m 959.5371,87.4804 c -7.0943,20.1742 -10.977,43.3458 -11.6368,69.5235 l -0.3984,15.8457 -65.1445,-1.6426 -2.1738,86.2734 65.1445,1.6407 -10.0508,398.791 18.3594,0.4629 c 31.5113,-37.8097 60.187,-77.9721 85.9082,-118.0801 l 6.8594,-272.2188 c -22.7444,-31.4616 -38.6215,-69.1361 -44.6348,-111.7246 -4.0756,-28.8365 -19.9682,-53.2667 -42.2324,-68.8711 z m -163.0332,64.8829 -111.6348,6.7187 -14.25,45.8906 c 28.2724,19.7774 59.2233,35.6224 91.9219,46.9825 z m -1158.3829,20.75 c -15.1039,-0.069 -30.7356,1.1169 -46.8984,3.5585 -46.439,7.0152 -86.0193,23.0868 -118.7383,48.2168 -32.719,25.129 -56.4297,57.8044 -71.1347,98.0254 -9.8922,27.0565 -14.7434,56.3109 -14.5684,87.7578 31.2769,-1.8382 63.4294,-4.6783 96.4297,-9.0585 -1.2361,-39.1169 8.0449,-70.8781 27.8516,-95.2735 22.527,-27.746 53.2359,-44.5566 92.1289,-50.4316 24.381,-3.683 47.6412,-2.0011 69.7832,5.0449 22.142,7.046 40.7622,20.2643 55.8632,39.6543 5.5197,7.0879 10.2605,14.9941 14.2403,23.7031 29.3648,-16.1537 55.7071,-34.2938 79.539,-54.0722 -3.3475,-5.1775 -6.9129,-10.2217 -10.7011,-15.1329 -23.995,-31.109 -55.0231,-53.734 -93.0801,-67.875 -24.9749,-9.28 -51.88,-13.9858 -80.7149,-14.1171 z m 767.2188,2.7871 -112.5156,6.7714 91.0722,180.5235 c 6.0422,-10.3674 12.0624,-20.9516 18.0586,-31.7852 13.175,-23.7953 28.2119,-46.66 45.0547,-68.5781 z m 912.6797,6.2871 c 2.8925,1.8091 5.8178,3.5803 8.7773,5.3105 l 0.1289,-5.0859 z m -1065.4649,4.5078 c -9.8983,15.1696 -19.2387,30.6704 -28.0058,46.5058 -33.8849,61.2217 -69.3318,115.0905 -106.0723,161.4336 l -49.9316,319.752 c 38.1981,-24.1939 76.9868,-54.2114 115.8437,-91.1777 z m -899.7285,22.3086 c -34.3248,1.4829 -68.4153,1.8796 -102.2539,2.0195 l -35.3301,202.8672 c 0.9204,0 1.8172,-2e-4 2.7403,0.01 31.8475,0.083 64.9578,0.1614 99.2539,-0.5469 z m 2210.4453,89.8574 c -34.5081,0.5244 -63.9061,8.3127 -88.1836,23.377 -34.011,21.105 -53.8122,52.0135 -59.4062,92.7265 -4.316,31.407 -0.025,57.3296 12.8711,77.7676 12.895,20.439 29.6879,36.2282 50.3789,47.3672 20.692,11.139 47.9271,23.1782 81.7051,36.1152 26.537,9.572 47.2767,18.1998 62.2207,25.8828 14.945,7.683 26.971,17.1877 36.082,28.5137 9.11,11.326 12.5065,25.4221 10.1895,42.2891 -0.2218,1.6139 -0.5046,3.1849 -0.8164,4.7382 31.0959,2.9383 62.8539,1.662 94.4355,-4.1816 1.5937,-26.3852 -3.3244,-48.5917 -14.7656,-66.6113 -13.398,-21.1 -30.6918,-37.5506 -51.8848,-49.3516 -21.193,-11.801 -49.2602,-24.2496 -84.2012,-37.3476 -26.457,-10.153 -46.7415,-18.8657 -60.8535,-26.1387 -14.112,-7.272 -25.473,-16.2393 -34.082,-26.9043 -8.609,-10.664 -11.8729,-23.5577 -9.7949,-38.6797 2.797,-20.356 11.8483,-35.5566 27.1543,-45.6016 8.3373,-5.4716 18.1253,-8.9269 29.3418,-10.3984 -3.5112,-12.8181 -5.3001,-26.4833 -5.0293,-40.8125 0.2652,-11.1952 1.8672,-22.1709 4.6386,-32.75 z m 553.2364,23.3906 c -27.0966,0.041 -52.5539,5.539 -76.3711,16.4942 -33.136,15.242 -58.7741,39.9127 -76.9141,74.0097 l 11.5684,-77.6172 c -35.1592,28.4575 -72.8881,54.4383 -113.0586,77.5508 l -36.1934,242.836 c 5.3627,-2.095 10.7054,-4.3186 16.0196,-6.7032 l 24.6718,-11.0644 c 0.01,0 0.015,4e-4 0.018,-0.01 23.3873,-10.4933 46.2026,-21.7416 68.459,-33.6719 l 10.7305,-71.9941 c 7.27,-48.776 24.6907,-84.0185 52.2617,-105.7285 27.572,-21.711 61.099,-29.6233 100.584,-23.7383 29.3047,4.3677 52.8255,14.9083 70.5742,31.6094 24.5943,-23.5469 47.9535,-48.1537 70.0195,-73.7266 -24.3754,-18.56 -54.3043,-30.4959 -89.8066,-35.7871 -11.1052,-1.6551 -21.9595,-2.4751 -32.5625,-2.459 z m -3163.28714,35.8594 c -5.03056,28.8835 -5.93986,55.3563 -2.74219,79.4297 31.22002,-9.6499 63.74921,-15.3965 98.13473,-18.8125 -1.0128,-13.0977 -0.1362,-27.6091 2.6387,-43.543 z m 2369.19534,3.1992 c -33.2692,10.2104 -67.4908,12.9529 -100.6504,9.0996 l -5.127,203.375 c 33.6216,2.6167 67.305,1.4091 100.5117,-3.5918 z m 457.9277,92.7363 -21.7715,9.7637 c -19.0506,8.5468 -38.6487,12.5174 -57.7793,12.5528 l 82.668,11.3574 c -0.2196,-11.6702 -1.2654,-22.8912 -3.1172,-33.6739 z m -1750.2422,35.3243 c -31.4426,28.0424 -63.6091,50.9745 -96.3555,68.6855 l 6.0606,98.5313 100.2012,-6.1641 z m -221.7734,110.4375 c -18.6109,2.4458 -37.343,3.2854 -56.1719,2.4961 -53.1483,-2.2279 -156.5226,-6.5413 -287.0059,9.8925 21.0267,20.1162 45.2584,35.2693 72.7051,45.4473 38.682,14.343 81.2427,18.0072 127.6817,10.9922 40.054,-6.051 75.2172,-18.9315 105.4882,-38.6445 13.9072,-9.0566 26.3293,-19.1264 37.3028,-30.1836 z m 814.4629,61.9511 c -43.4498,12.6933 -84.4654,31.6899 -124.1231,54.6641 l -63.5117,174.916 111.6348,-6.7168 z"
       style="clip-rule:evenodd;display:inline;opacity:0.70999995;fill:#74caf0;fill-opacity:1;fill-rule:nonzero;stroke:#8edbf0;stroke-width:1.00157475;stroke-linejoin:round;stroke-miterlimit:2;stroke-dasharray:none;stroke-opacity:1;filter:url(#filter1012)" /></g><g
     style="display:inline"
     id="layer4"><g
       id="g879"
       transform="matrix(1.93491,0,0,1.93491,3225.88,-1644.61)"
       style="clip-rule:evenodd;fill-rule:evenodd;stroke-linejoin:round;stroke-miterlimit:2"><text
   id="text875"
   style="font-style:italic;font-size:63.44400024px;font-family:Poppins-Italic, Poppins"
   y="2352.6699"
   x="162.07899">Icon by Freepik</text>


<text
   id="text877"
   style="font-style:italic;font-size:63.44400024px;font-family:Poppins-Italic, Poppins"
   y="2422.46"
   x="215.37199">from Flaticon</text>


</g></g></svg>
